<svg width="94" height="76" viewBox="0 0 94 76" fill="none" xmlns="http://www.w3.org/2000/svg">
<path d="M19.7 1.64773e-05C27.5 1.57954e-05 33.4 3.20002 37.4 9.60002C40.8 15 42.5 21.6 42.5 29.4C42.5 39.4 40 48.4 35 56.4C29.8 64.4 22 70.8 11.6 75.6L8.89999 70.2C15.1 67.6 20.5 63.5 25.1 57.9C29.5 52.3 31.7 46.6 31.7 40.8C31.7 38.4 31.4 36.3 30.8 34.5C27.6 37.1 23.9 38.4 19.7 38.4C14.3 38.4 9.79998 36.6 6.19998 33C2.39998 29.6 0.499983 25 0.499983 19.2C0.499982 13.8 2.39998 9.20002 6.19998 5.40002C9.79998 1.80002 14.3 1.69494e-05 19.7 1.64773e-05ZM70.7 1.20188e-05C78.5 1.13369e-05 84.4 3.20001 88.4 9.60001C91.8 15 93.5 21.6 93.5 29.4C93.5 39.4 91 48.4 86 56.4C80.8 64.4 73 70.8 62.6 75.6L59.9 70.2C66.1 67.6 71.5 63.5 76.1 57.9C80.5 52.3 82.7 46.6 82.7 40.8C82.7 38.4 82.4 36.3 81.8 34.5C78.6 37.1 74.9 38.4 70.7 38.4C65.3 38.4 60.8 36.6 57.2 33C53.4 29.6 51.5 25 51.5 19.2C51.5 13.8 53.4 9.20001 57.2 5.40002C60.8 1.80001 65.3 1.24909e-05 70.7 1.20188e-05Z" fill="white" fill-opacity="0.12"/>
</svg>
